<?xml version="1.0" encoding="utf-8"?>
<!-- Generator: Adobe Illustrator 24.3.0, SVG Export Plug-In . SVG Version: 6.00 Build 0)  -->
<svg version="1.1" id="Layer_1" xmlns="http://www.w3.org/2000/svg" xmlns:xlink="http://www.w3.org/1999/xlink" x="0px" y="0px"
	 viewBox="0 0 500 500" style="enable-background:new 0 0 500 500;" xml:space="preserve">
<style type="text/css">
	.st0{fill:#FFFFFF;}
</style>
<path d="M391.5,265.1c-20,5.7-28.2,1.9-29.4,0c-1.1-1.8,2.6-3.6,3-3.7c-9.2,1.9-33.7-7.3-63-6.3c-12.4,0.4-22.6-2.1-30.3-5.1
	c7.7-3,17.9-5.5,30.3-5.1c29.3,1,53.7-8.2,63-6.3c-0.4-0.2-4.1-1.9-3-3.7c1.2-1.9,9.5-5.7,29.4,0s27.4,0.2,29.4-3.6
	c0,0-15.3,3-30.5-3.6c-15.3-6.7-19.8-0.8-17-4.2c2.8-3.4,25.1-0.1,28-16c0,0-10.8,9-20,8.9c-9.2-0.2-14.1,7.4-22.1,10.5
	c-8.1,3.1-18.4,8.9-26.3,9.4s-19.9-0.8-19.9-0.8s11.6-8.6,15-13.1c3.4-4.5,12-6.9,12-6.9s-12.6-1-21.8,10.2
	c-9.2,11.1-38.9,15-38.9,13.1c0-1.9,3.6-10,19.5-11.6c16-1.6,15.7-5.5,15.7-5.5s-24.7,1.6-23.6-4.8c1.1-6.5,7.8,0.2,11.5-4.8
	c3.7-5,14.2,1.1,17.9,0.3c3.7-0.8,11.7-7.3,17.9-5.7c6.2,1.6,17.7-0.3,17.7-0.3s-14.1-1.8-13.2-4.8c0.8-2.9,18.9-5.7,27.8-20.3
	c-0.6,0.5-11.8,9-20,7.1c-8.4-1.9,7.9-16,7.9-16s-12.8,3.4-16.8,18.7c-4,15.4-19.4,12.4-14.9,9c4.5-3.4,8.6-6.6,8.6-6.6
	s-22,11.8-24.9,8.9c-2.9-2.9,7.8-28,8.1-28.7c-0.7,0.6-25.1,22.2-27.9,16.3c-2.8-5.9,27.3-21.3,28.6-22c-0.8,0.1-14.3,1.9-14.3-2.4
	c0-4.4,11.6-8,13.6-15.8c1.9-7.8-7.3-10.4-9.9-5.8c0,0,5.3,0.2,2.2,5.8c-3.2,5.6-9.9,6.8-12.4,17c-2.4,10.2-9.7,12.8-13.6,9
	c0,0-4.4,13.3-9.2,15.4c-4.8,2.1-6.8,23.4-6.8,23.4s-4.5-4-5.8-7.9c0,0-2.7,3.4,0.6,15.7c0,0-5.8,3.6-8-1.9
	c-2.2-5.5-0.8-15.7,6.2-20.5c6.9-4.8,12-27.5,19.5-30.4c7.6-2.9,15.2-8.1,16.8-20c1.6-12,21-17.8,23.3-31.8c0,0-23.7,16.8-26.8,25.4
	s-5.2,15-7.8,13.2c-2.6-1.8-0.2-23.1-6.1-30.5c0,0,1-15.3-2.3-17.9c0,0,15-14.2-1.6-38c0,0,2.7,19.7-1,25.8
	c-3.7,6.1-1.9,14.1-5.3,15.8c-3.4,1.8-8.4-5.3-8.4-5.3s-1.4,7.5,11,15.5s3.4,51.1-6.8,56.7c-8.1,4.4-14.1,23.5-16.2,35.5
	c-2.1-12-8.1-31.1-16.2-35.5c-10.2-5.6-19.1-48.7-6.8-56.7s11-15.5,11-15.5s-5,7.1-8.4,5.3c-3.4-1.8-1.6-9.7-5.3-15.8
	c-3.7-6.1-1-25.8-1-25.8c-16.6,23.7-1.6,38-1.6,38c-3.2,2.6-2.3,17.9-2.3,17.9c-6,7.4-3.6,28.8-6.1,30.5c-2.6,1.8-4.7-4.7-7.8-13.2
	c-3.1-8.6-26.8-25.4-26.8-25.4c2.3,14.1,21.6,19.9,23.3,31.8c1.6,12,9.2,17.1,16.8,20c7.6,2.9,12.6,25.5,19.5,30.4
	c6.9,4.8,8.4,15,6.2,20.5c-2.2,5.5-8,1.9-8,1.9c3.4-12.3,0.6-15.7,0.6-15.7c-1.3,3.9-5.8,7.9-5.8,7.9s-1.9-21.3-6.8-23.4
	c-4.8-2.1-9.2-15.4-9.2-15.4c-3.9,3.9-11.1,1.2-13.6-9c-2.4-10.2-9.2-11.4-12.4-17c-3.2-5.6,2.2-5.8,2.2-5.8
	c-2.7-4.6-11.9-1.9-9.9,5.8c1.9,7.8,13.6,11.4,13.6,15.8c0,4.2-13.4,2.5-14.3,2.4c1.3,0.6,31.4,16.1,28.6,22
	c-2.9,5.9-27.3-15.7-27.9-16.3c0.3,0.7,10.9,25.9,8.1,28.7c-2.9,2.9-24.9-8.9-24.9-8.9s4,3.2,8.6,6.6c4.5,3.4-10.9,6.3-14.9-9
	c-4-15.4-16.8-18.7-16.8-18.7s16.3,14.1,7.9,16c-8.2,1.9-19.4-6.6-20-7.1c8.9,14.7,27,17.4,27.8,20.3c0.8,2.9-13.2,4.8-13.2,4.8
	s11.5,1.9,17.6,0.3c6.2-1.6,14.2,4.8,17.9,5.7c3.7,0.8,14.2-5.3,17.9-0.3c3.7,5,10.3-1.6,11.5,4.8c1.1,6.5-23.6,4.8-23.6,4.8
	s-0.3,3.9,15.7,5.5c16,1.6,19.5,9.7,19.5,11.6c0,1.9-29.7-1.9-38.9-13.1c-9.2-11.1-21.8-10.2-21.8-10.2s8.6,2.4,12,6.9
	c3.4,4.5,15,13.1,15,13.1s-12,1.3-19.9,0.8c-7.9-0.5-18.3-6.3-26.3-9.4c-8.1-3.1-12.9-10.7-22.1-10.5c-9.2,0.2-20-8.9-20-8.9
	c2.9,15.9,25.2,12.6,28,16c2.8,3.4-1.7-2.4-17,4.2c-15.3,6.7-30.5,3.6-30.5,3.6c2.1,3.9,9.5,9.3,29.4,3.6s28.2-1.9,29.4,0
	c1.1,1.8-2.6,3.6-3,3.7c9.2-1.9,33.7,7.3,63,6.3c12.4-0.4,22.6,2.1,30.3,5.1c-7.7,3-17.9,5.5-30.3,5.1c-29.3-1-53.7,8.2-63,6.3
	c0.4,0.2,4.1,1.9,3,3.7c-1.2,1.9-9.5,5.7-29.4,0c-20-5.7-27.4-0.2-29.4,3.6c0,0,15.3-3,30.5,3.6c15.3,6.7,19.8,0.8,17,4.2
	c-2.8,3.4-25.1,0.1-28,16c0,0,10.8-9,20-8.9c9.2,0.2,14.1-7.4,22.1-10.5c8.1-3.1,18.4-8.9,26.3-9.4c7.9-0.5,19.9,0.8,19.9,0.8
	s-11.6,8.6-15,13.1s-12,6.9-12,6.9s12.6,1,21.8-10.2c9.2-11.1,38.9-15,38.9-13.1c0,1.9-3.6,10-19.5,11.6c-16,1.6-15.7,5.5-15.7,5.5
	s24.7-1.6,23.6,4.8c-1.1,6.5-7.8-0.2-11.5,4.8c-3.7,5-14.2-1.1-17.9-0.3c-3.7,0.8-11.7,7.3-17.9,5.7c-6.2-1.6-17.6,0.3-17.6,0.3
	s14.1,1.8,13.2,4.8c-0.8,2.9-18.9,5.7-27.8,20.3c0.6-0.5,11.8-9,20-7.1c8.4,1.9-7.9,16-7.9,16s12.8-3.4,16.8-18.7
	c4-15.4,19.4-12.4,14.9-9c-4.5,3.4-8.6,6.6-8.6,6.6s22-11.8,24.9-8.9c2.9,2.9-7.8,28-8.1,28.7c0.7-0.6,25.1-22.2,27.9-16.3
	c2.8,5.9-27.3,21.3-28.6,22c0.8-0.1,14.3-1.9,14.3,2.4c0,4.4-11.6,8-13.6,15.8c-1.9,7.8,7.3,10.4,9.9,5.8c0,0-5.3-0.2-2.2-5.8
	c3.2-5.6,9.9-6.8,12.4-17c2.4-10.2,9.7-12.8,13.6-9c0,0,4.4-13.3,9.2-15.4c4.8-2.1,6.8-23.4,6.8-23.4s4.5,4,5.8,7.9
	c0,0,2.7-3.4-0.6-15.7c0,0,5.8-3.6,8,1.9c2.2,5.5,0.8,15.7-6.2,20.5c-6.9,4.8-12,27.5-19.5,30.4c-7.6,2.9-15.2,8.1-16.8,20
	s-21,17.8-23.3,31.8c0,0,23.7-16.8,26.8-25.4c3.1-8.6,5.2-15,7.8-13.2c2.6,1.8,0.2,23.1,6.1,30.5c0,0-1,15.3,2.3,17.9
	c0,0-15,14.2,1.6,38c0,0-2.7-19.7,1-25.8c3.7-6.1,1.9-14.1,5.3-15.8s8.4,5.3,8.4,5.3s1.4-7.5-11-15.5s-3.4-51.1,6.8-56.7
	c8.1-4.4,14.1-23.5,16.2-35.5c2.1,12,8.1,31.1,16.2,35.5c10.2,5.6,19.1,48.7,6.8,56.7s-11,15.5-11,15.5s5-7.1,8.4-5.3
	c3.4,1.8,1.6,9.7,5.3,15.8c3.7,6.1,1,25.8,1,25.8c16.6-23.7,1.6-38,1.6-38c3.2-2.6,2.3-17.9,2.3-17.9c6-7.4,3.6-28.8,6.1-30.5
	c2.6-1.8,4.7,4.7,7.8,13.2c3.1,8.6,26.8,25.4,26.8,25.4c-2.3-14.1-21.6-19.9-23.3-31.8c-1.6-12-9.2-17.1-16.8-20
	c-7.6-2.9-12.6-25.5-19.5-30.4c-6.9-4.8-8.4-15-6.2-20.5c2.2-5.5,8-1.9,8-1.9c-3.4,12.3-0.6,15.7-0.6,15.7c1.3-3.9,5.8-7.9,5.8-7.9
	s1.9,21.3,6.8,23.4c4.8,2.1,9.2,15.4,9.2,15.4c3.9-3.9,11.1-1.2,13.6,9c2.4,10.2,9.2,11.4,12.4,17c3.2,5.6-2.2,5.8-2.2,5.8
	c2.7,4.6,11.9,1.9,9.9-5.8c-1.9-7.8-13.6-11.4-13.6-15.8c0-4.2,13.4-2.5,14.3-2.4c-1.3-0.6-31.4-16.1-28.6-22
	c2.9-5.9,27.3,15.7,27.9,16.3c-0.3-0.7-10.9-25.9-8.1-28.7c2.9-2.9,24.9,8.9,24.9,8.9s-4-3.2-8.6-6.6c-4.5-3.4,10.9-6.3,14.9,9
	c4,15.4,16.8,18.7,16.8,18.7s-16.3-14.1-7.9-16c8.2-1.9,19.4,6.6,20,7.1c-8.9-14.7-27-17.4-27.8-20.3c-0.8-2.9,13.2-4.8,13.2-4.8
	s-11.5-1.9-17.7-0.3c-6.2,1.6-14.2-4.8-17.9-5.7c-3.7-0.8-14.2,5.3-17.9,0.3c-3.7-5-10.3,1.6-11.5-4.8c-1.1-6.5,23.6-4.8,23.6-4.8
	s0.3-3.9-15.7-5.5c-16-1.6-19.5-9.7-19.5-11.6c0-1.9,29.7,1.9,38.9,13.1c9.2,11.1,21.8,10.2,21.8,10.2s-8.6-2.4-12-6.9
	c-3.4-4.5-15-13.1-15-13.1s12-1.3,19.9-0.8c7.9,0.5,18.3,6.3,26.3,9.4c8.1,3.1,12.9,10.7,22.1,10.5c9.2-0.2,20,8.9,20,8.9
	c-2.9-15.9-25.2-12.6-28-16c-2.8-3.4,1.7,2.4,17-4.2c15.3-6.7,30.5-3.6,30.5-3.6C418.9,264.9,411.5,259.4,391.5,265.1z M306.4,190.7
	c0,0-1,14.4-13.7,12C279.9,200.3,306.4,190.7,306.4,190.7z M207.3,202.7c-12.8,2.4-13.7-12-13.7-12S220.1,200.3,207.3,202.7z
	 M193.6,309.3c0,0,1-14.4,13.7-12C220.1,299.7,193.6,309.3,193.6,309.3z M292.7,297.3c12.8-2.4,13.7,12,13.7,12
	S279.9,299.7,292.7,297.3z M284.6,190.7c0,0,0.5,12.8-5.2,15.7C273.8,209.3,279,190.2,284.6,190.7z M278.6,209.5
	c0.8-3.1,8.9,8.7-6,9.4C272.7,218.8,277.8,212.5,278.6,209.5z M278.5,225.9c-3.9,6.5-11.8,11.5-12.4,6.6
	C265.4,227.7,278.5,225.9,278.5,225.9z M215.4,190.7c5.7-0.5,10.8,18.6,5.2,15.7C214.9,203.5,215.4,190.7,215.4,190.7z M221.4,209.5
	c0.8,3.1,6,9.4,6,9.4C212.5,218.2,220.6,206.4,221.4,209.5z M221.5,225.9c0,0,13.1,1.8,12.4,6.6
	C233.3,237.4,225.4,232.4,221.5,225.9z M215.4,309.3c0,0-0.5-12.8,5.2-15.7C226.2,290.7,221,309.8,215.4,309.3z M221.4,290.5
	c-0.8,3.1-8.9-8.7,6-9.4C227.3,281.2,222.2,287.5,221.4,290.5z M221.5,274.1c3.9-6.5,11.8-11.5,12.4-6.6
	C234.6,272.3,221.5,274.1,221.5,274.1z M266,267.4c0.6-4.8,8.6,0.2,12.4,6.6C278.5,274.1,265.4,272.3,266,267.4z M284.6,309.3
	c-5.7,0.5-10.8-18.6-5.2-15.7C285.1,296.5,284.6,309.3,284.6,309.3z M278.6,290.5c-0.8-3.1-6-9.4-6-9.4
	C287.5,281.8,279.4,293.6,278.6,290.5z"/>
</svg>
