<?xml version="1.0" encoding="utf-8"?>
<!-- Generator: Adobe Illustrator 25.0.1, SVG Export Plug-In . SVG Version: 6.00 Build 0)  -->
<svg version="1.1" id="Layer_1" xmlns="http://www.w3.org/2000/svg" xmlns:xlink="http://www.w3.org/1999/xlink" x="0px" y="0px"
	 viewBox="0 0 3000 3000" style="enable-background:new 0 0 3000 3000;" xml:space="preserve">
<g>
	<path d="M2399.4,2238.7c8.6,13.6,16.4,26.7,16.6,42.3c0.1,11.7,3.8,23.3,2.8,35.1c-0.3,4.1,3,7.2,3.8,11c4.1,18,8.4,35.9,14.2,53.6
		c1.4,4.2,0.5,8.7,2.5,13.5c-7.8-5-10.7-11.8-13.7-18.3c-5.9-13-12.3-25.9-17.4-39.2c-3.2-8.3-9.9-15.4-16.1-22.7
		c-11.8-13.9-25.3-26.7-36.5-41c-8.4-10.8-17.7-21.1-27.2-31.4c-7.6-8.2-14.3-17.1-19-26.8c-1.4-2.8-3.1-3.8-7.2-4.3
		c-12.6-1.6-24-6.6-35.8-10.3c-12.5-4-25-8-37.5-12c-0.6-0.2-1.5-0.5-1.9-0.3c-7.9,3.4-12.4-1.8-17.9-4.6
		c-9.6-4.9-15.3-2.9-17.9,6.2c-3.2,11.2-3.1,22.5-2.5,33.9c0.7,13.1,1.2,26.1,2.5,39.2c1.2,11.4,4.1,22.7,5.2,34.1
		c0.8,7.9,2.5,15.8,2.9,23.7c0.6,11.5,3.1,22.9,4.6,34.3c1,8.1-0.4,16.3,2.3,24.3c0.6,1.9,0.7,4.4,2.6,4.9c9.3,2.2,9.3,9.5,10,14.4
		c1.4,9.4,6.7,17.1,12,24.9c6.3,9.3,12.8,18.6,20.3,27.3c6.2,7.2,14.9,11.7,26.5,12.6c18.5,1.4,36.8,4.2,55.2,5.5
		c32.3,2.4,64.3,6.2,96.5,9c10.3,0.9,20.7,0.2,31.1,0.4c10.1,0.2,19.3,2.2,28.2,4.9c25.9,8,50.6,17.9,74.8,28.7
		c3.5,1.6,7.3,3.2,10.2,5.1c15.2,9.8,33.9,7.6,51,10.8c1.8,0.3,3.3,0.1,4.3-1.3c0.7-1.1,2-1.5,3.4-1c17.6,6.1,36.9,5.9,55.1,9.5
		c17,3.4,33.8,8,51.2,9.2c19.7,1.3,38,7.2,57.6,8.6c6.7,0.5,13.2,2.5,18.9,5.5c13.9,7.3,28.3,13.8,41.1,22.4
		c4.8,3.3,11.3,4.9,15.7,9.7c-4.9,1.6-9.5,1.6-14.1,1.6c-25.9-0.4-51.8-1-77.7-1.2c-21.9-0.2-43.8-0.3-65.9,3.2
		c2.2,4.4,6.9,6.4,10.8,8.8c9.1,5.6,17.8,11.7,26,18c14.4,11.1,28.3,22.5,42.6,33.7c3,2.4,4.9,5.3,7.1,8c1.7,2.1,2.2,4.6,2.1,7.1
		c-0.4,6.3-4.9,8.7-12.2,6.4c-10.4-3.2-19.5-8.6-29.1-13.1c-9.3-4.4-18.2-9.8-27.7-13.4c-16-6-29-15.8-45.1-21.4
		c-0.9-0.3-1.9-0.8-2.5-1.4c-13.1-13.1-33-18.6-48.9-28.6c-17.8-11.3-37.2-20.6-56.3-30.3c-18.8-9.5-37-19.8-56.2-28.9
		c-7.2-3.4-14.6-6.9-22.3-9.6c-4.2-1.5-8.4-3.3-10.7-6c-3.6-4.4-9-5.7-14.3-6.9c-19.1-4.5-38.3-3.9-57.4-0.3
		c-22.2,4.1-44.6,7.5-67.2,9.7c-7.6,0.7-15.2,1.9-23.5,2.9c2.7,5.4,6.8,9.1,11.1,12.3c15.2,11.4,27.2,25,38.8,38.8
		c8.9,10.5,17.8,21,25,32.5c8.5,13.5,13.6,27.9,18.1,42.4c2.5,8.2,6,16.1,8.1,24.4c4.4,17.9,8.8,35.9,15.2,53.5
		c7.1,19.4,10.7,39.5,20,58.4c4.9,10.1,7.4,20.9,10.9,31.1c-2,1.3-3.3,0.5-3.9-0.3c-8.9-10.7-20.9-19.2-31.6-28.5
		c-8-7-14.8-14.9-24.3-20.8c-2-1.2-3.3-3.5-4.2-5.5c-7.1-15.8-15.8-31.1-22.2-47.2c-4.7-11.9-11.6-23.2-17.2-34.9
		c-6.3-13.3-12.2-26.7-18.3-40c-5-10.9-9.9-21.9-15.3-32.7c-1.3-2.6-1.8-5.2-2.6-7.8c-2.5-8.9-11.1-14.2-17.9-20.4
		c-11.1-10.1-22.7-19.9-34.3-29.6c-23.3-19.5-46.4-39.2-70.3-58.2c-11-8.7-22.3-17.3-33.3-26c-19.1-15-33.3-32.5-39.3-54.1
		c-3.4-12.4-4.2-24.9-5.9-37.3c-1.2-9-2.3-18-3.2-26.9c-1.6-14.4-4-28.8-4.2-43.2c-0.2-15.5-0.8-31-1-46.5
		c-0.3-14.8-1.6-29.8-2-44.6c-0.2-8.4-1.6-16.7-1.4-25.1c0-1.4-0.1-2.7-0.2-4.1c-0.6-7.1-0.5-14.6-12.7-15.3
		c-15.5-7.9-32.4-13.9-46.7-23.7c-6.4-4.3-12.4-9-19-13.5c-9.8,13.9-18.6,28-26.7,42.4c-7.3,13-16.8,24.9-25.7,37.2
		c-8.9,12.2-16.8,24.8-25.3,37.1c-9.1,13.3-15.3,27.7-25.3,40.6c-2.1,2.7-2.7,5.7-3.1,8.6c-1.3,8.1-2.8,16.3-2.3,24.5
		c0.2,2.4,0.1,5.1,1.3,7.3c11,18.5,14.1,38.7,19.6,58.4c2.4,8.6,6.1,16.8,9.3,25.1c7.9,20.7,14,41.5,18.6,62.8
		c3.2,15,7.5,29.9,11.1,45c2.1,8.8,4,17.7,5.4,26.7c1.6,10.4,4.7,20.5,6.5,30.8c2.1,12.4,3.7,24.9,5.7,37.3
		c3.7,22.8,5.5,45.7,10.8,68.3c2.2,9.6,3.1,19.5,3.1,29.4c0.1,12.3,0.1,24.6,0.2,36.9c0.1,6.3-1.5,12.4-4.5,19.2
		c-5.2-5.8-7.6-11.7-11.2-17.1c-5.9-8.8-12.4-17.4-17.7-26.5c-3.9-6.7-5.9-13.4-5.5-20.5c1-17.9-4-35.3-6.6-52.9
		c-1.4-9.4-4.3-18.8-5.3-28.2c-1.7-15.6-5-31-9-46.1c-6.7-25.2-10.6-50.6-15.5-76c-0.4-1.8,0.3-4-3.1-5c-7.6,15.4-15.2,30.8-23,46.1
		c-5.9,11.6-11.2,23.4-18.3,34.5c-6,9.4-11.6,19-17.3,28.5c-7.7,12.7-14.7,25.8-22.6,38.5c-6.2,9.9-11.5,20.3-20,29.3
		c-2.1,2.2-4.1,4.3-8.3,5c0.4-8.3,3.3-15.9,5.1-23.6c1.9-8.5,4.1-17,7.3-25.3c5.1-13.4,12.4-26,20-38.4c13.8-22.5,27.2-45,38.9-68.3
		c9.3-18.4,18.2-37,27.6-55.4c3.6-7,4.8-13.8,3.2-21.5c-5.1-24.8-12.5-49.1-20.7-73.3c-2.2-6.5-6.3-12.7-9.3-19.1
		c-7.3-15.7-9.5-31.7-3.3-48.1c0.4-1,1-2.2,0.8-3.1c-5-16.3,4.5-30.5,10.2-45.1c5.3-13.5,13.1-26.2,17.2-40.1
		c1.1-3.9,2.8-7.8,5.8-11.3c1.7-2,3-4.3,4-6.7c6.6-16.7,16.3-32.4,21.3-49.5c4.6-15.9,10.5-31.6,13.6-47.8
		c2.5-12.9,3.5-26.1,5.6-39.1c1-6.5-2.4-11.8-8.2-15c-10.3-5.8-19.9-12.6-32.2-16.1c-17.9-5.1-35.5-11-53.1-16.7
		c-3.5-1.1-5.3-0.7-7.4,2c-6.6,8.7-13.3,17.3-19.7,26.2c-9.7,13.4-17.8,27.5-25.8,41.6c-16,28-30.8,56.3-37.7,87.1
		c-3.6,15.8-7.7,31.6-10,47.6c-1.3,8.9-2.3,17.8-3.5,26.7c-1.9,13.8-2.2,27.8-5.6,41.5c-2.3,9.6-6.2,18.8-11.4,27.7
		c-9,15.2-20.4,29.2-31.9,43.2c-5.9,7.2-13.3,13.6-18.6,21.3c-9.1,13.2-13.2,27.9-19.5,42c-7.4,16.6-13.8,33.6-20.8,50.3
		c-5.3,12.6-10.8,25.1-16.3,37.7c-0.4,1-0.9,2.1-1,3.2c-1.5,12.3-9.9,22.3-17.6,32.3c-4.1,5.4-6.9,11.1-11.1,16.5
		c3.2-21,11.5-41.2,16.4-61.9c5-20.8,12.5-41.1,18.7-62.7c-23.4,22.4-45.4,44.3-65,67.9c-0.5-4.5,3-7.6,4.5-11.4
		c5-12.4,12.6-24.1,16.2-36.9c0.6-2.2,2-4,3.2-6c1.8-2.9,4.3-5.8,4.8-9c2.5-14.9,14-26.2,22.4-38.7c5.4-8.2,10.7-16.4,16.1-24.5
		c5.8-8.8,11.8-17.6,17.3-26.6c10.8-17.8,23.8-34.8,34.1-52.8c3.5-6.2,8-12,11.1-18.4c5.1-10.5,8.2-21.3,8.9-32.4
		c0.4-6.1-0.1-12.3,0.3-18.5c0.6-10.9,3.7-21.6,5.4-32.4c1.7-10.5,3.1-21.1,5.2-31.5c1.5-7.8,3.8-15.5,5.8-23.2
		c4.1-16,7.4-32.2,13.7-47.8c6.8-17.1,10.2-34.9,18.9-51.7c4.5-8.7,7.7-18,11.4-27c4.5-10.9,9.9-21.4,16.7-31.5
		c4.2-6.3,3.7-6.5-2.3-11c-5.4-4.1-10.7-8.1-16.5-11.9c-4-2.6-9.6-5.3-8.1-11.2c0.4-1.5-2.3-3.3-4.8-3.8c-9.7-1.8-17.5-7.2-26.9-9.5
		c-6.7-1.6-8.3-7-12.1-10.6c-10.9-10.4-22.5-20.3-32.9-31c-14.3-14.6-31.7-26.8-47.2-40.5c-11.3-10-25.3-18-38.1-27
		c-26.3-18.3-52-37.1-76-57.5c-3.3-2.8-4.3-5.1-3.6-8.6c3.3-18,7.7-35.9,13.6-53.5c2.6-7.6,6.4-15,6-23c-0.5-11.7-5.6-22.4-13-32.3
		c-3.1-4.2-6.9-8.1-9.3-12.7c-4.3-8.2-12.8-13.9-19.2-20.9c-4.4-4.9-10.9-8.7-10.3-15.8c0.1-1.7-1.4-3.9-3-5.1
		c-10.5-7.4-17.2-17.3-26.6-25.5c-11.2-9.7-24.3-17.3-37-25.4c-7.8-5-16-10-24.7-14.2c-12.2-5.8-24.3-6.8-37.3-1.2
		c-8.2,3.5-15.5,7.4-20.8,13.8c-3,3.6-7.5,6.6-12.6,8.1c-13.4,4.1-23,12-32.2,20.2c-2,1.7-3.8,2.6-6.4,3.4
		c-22.6,6.7-43.2,16.7-63.7,26.6c-12.3,5.9-21.6,14.8-32.1,22.5c-13.3,9.8-25.1,20.8-34.3,33.2c-18.2,24.5-35.1,49.7-42.7,78
		c-3.8,14.1-4.9,28.6-7,43c-0.4,2.9,0.9,4.8,3.2,6.5c16.9,13.1,25.1,30.3,34.2,47c4.2,7.8,9.6,15.1,14.3,22.7
		c10,16.2,17.3,33.3,25.1,50.2c1.3,2.8,3.1,5.5,4.2,8.4c2.5,6.6,8.8,8.7,16.2,9.2c6.7,0.5,13.6,0.3,20.2-0.9
		c9.5-1.7,18.6-1.9,26.8,3.4c2.3,1.5,5.6,1.2,8.6,1.3c14.7,0.3,21.3,7.3,17.6,18.9c-0.7,2.1,0,3.4,0.8,5.2c4.5,10,8.7,20,12.4,30.2
		c4.4,12.2,8.6,24.6,13.9,36.7c2.5,5.6,4.5,11.4,6.9,17.1c1.4,3.2,2.6,4.8,6.7,5.9c17.2,4.7,34.3,9.7,51.3,14.6
		c4.4,1.3,8.9,2.6,13.2,4.2c30.5,11,62.8,18.2,93.6,28.5c2.8,0.9,5.8,1.7,8.4,2.9c11.4,5.3,11.4,17.5,0,22.7
		c-3.8,1.8-8,3.2-12.4,3.3c-12.5,0.4-25,1.4-37.4-0.7c-15.1-2.6-30-5.9-45.2-8.4c-16.2-2.7-32-6.7-48.6-7.7
		c-6.6-0.4-8.1,0.4-5.7,5.6c4.7,10.2,7.1,21,11.3,31.4c7.3,18.2,13.5,36.6,18.1,55.3c1.2,4.8,2.7,9.6,4.7,14.3
		c5.5,12.5,4.2,25.3,2.6,38.1c-1.2,10.1-1.6,20.2-2.9,30.2c-1.3,10.3-3.3,20.5-5.1,30.7c-0.3,1.5-1.3,2.9-2.4,5.3
		c-6.6-7.2-11.6-13.6-12.4-21.8c-1.2-12.6-4.7-24.5-13.9-35.3c-5.2-6.2-9.7-13.1-13.3-20.2c-4-8.1-5.1-16.5-5.2-25
		c-0.2-19-6.5-36.6-15.1-54c-7.2-14.7-13.4-29.8-21.4-44.3c-5.2-9.4-5.6-19.8-6.6-29.8c-0.8-8.6-3.1-16.8-6.7-24.8
		c-6.1-13.7-10.9-27.7-12.4-42.2c-2.4-23.6-32.3-39.3-54.5-38.3c-5,0.2-10.1-0.1-15-0.3c-9.1-0.5-16.6-4.6-21.5-10.9
		c-12-15.5-23.8-31.1-33.3-48.2c-2,1.5-1.4,3.1-1.3,4.4c0.4,6-0.2,11.7-1.4,17.7c-1.6,8-1.3,16.4-0.6,24.6c0.8,10.3-0.3,20.7,0.1,31
		c0.1,2.2-0.7,4.3-1.7,6.4c-5.8,12.9-13,25.3-23,36.3c-7.2,7.9-15.5,15.2-23.5,22.6c-6,5.5-6.8,6.7-1.9,12
		c12.3,13.5,17.2,29.5,24,44.8c2.6,5.9,5.6,11.7,8,17.7c5.4,13.6,9,27.5,12.8,41.3c8.2,30.5,12.6,61.4,14.3,92.6
		c0.9,17.2,2.2,34.2-0.5,51.4c-2.5,16,3.5,30.9,11.9,45.1c17.3,29.3,34.9,58.6,52.3,87.9c4.4,7.4,10,14.2,13.6,21.9
		c0.5,1,1.5,2,1.6,3c0.3,10.8,6.5,20.5,7.9,31.1c0.2,1.4,0,2.8,0.7,4c5.7,10.2,4.3,22.1,11.4,32c0.6,0.8,0.4,2.1,0.8,3.9
		c-4.4-1.1-4.9-4.1-6.7-6.1c-8.2-9.2-16.4-18.4-24.6-27.6c-0.6-0.7-1-1.6-1.7-2c-8.9-4.5-15.4-10.9-21.4-18.1
		c4.5,39.8,6.6,79.6,8,119.4c-5.3-10.6-13.6-19.9-17.7-30.8c-1-2.6-0.7-5.4-1.1-8.2c-2.6-17.7-7.2-35-11.4-52.5
		c-3.7-15.8-7.8-31.6-11.9-47.3c-1.9-7.2-3.6-14.5-6.4-21.5c-2.6-6.6-8.4-11.8-13.9-17c-12.3-11.7-22-24.8-29.8-38.8
		c-5.6-10-6.9-20.8-8.1-31.8c-1.5-14,0.7-27.8-0.1-41.7c-0.7-12.5-1-25-1-37.6c0-13.8-4.2-27.1-6.6-40.6c-1.6-9.5-4.7-18.7-7.8-27.9
		c-1.8-5.2-5.1-10.1-7.8-15.1c-9-17-18.4-33.9-30.5-49.8c-8.1-10.7-16.5-21.2-26.9-30.6c-3.2-2.9-5.9-3.7-10.1-1.1
		c-7,4.3-14.6,7.9-21.4,12.2c-11.8,7.6-24.7,13.9-37.1,20.8c-13.7,7.6-25.6,16.8-35.7,27.4c-14.1,14.7-25,30.8-34.2,47.9
		c-8.5,15.9-20,30.8-31.9,45.3c-17.3,21.2-39.2,38.6-63.2,54.6c-8.6,5.7-16.9,11.7-26.2,16.7c-2.4,1.3-4,3.2-4.1,5.4
		c-0.4,11.5-4.1,22.7-4.8,34.2c-0.7,12-3,23.9-4.8,35.8c-2.4,15.7-3.4,31.6-5.2,47.4c-1.7,14.7-2.4,29.5-7.3,43.8
		c-2,5.7-0.6,9.1,4.8,13.6c12.8,10.5,29,16.9,42.9,25.9c15,9.7,31.8,17.8,44.5,29.5c12.2,11.4,20.2,25.2,24.7,39.9
		c5.1,16.7,7.7,33.8,11.7,50.6c6.5,27.4,7.9,55.4,13.7,82.8c2.7,12.6,5.9,25.2,8,37.9c3.4,20.3,7.6,40.5,11.9,60.7
		c2.9,13.5,6.4,26.8,10,41.6c-6.6-3.9-12.8-6.6-17.4-10.4c-8.3-6.8-17.4-12.8-26.2-19.1c-3.4-2.5-5.3-5.4-6.2-9.1
		c-5.4-23.1-10.7-46.2-16.5-69.2c-8.4-33.2-16.9-66.4-26.7-99.3c-4.8-16.1-11.5-31.6-24.6-44.5c-8.3-8.1-16.7-16.3-25.7-23.9
		c-7.7-6.5-15.9-12.6-23.9-18.7c-5.8-4.4-12.6-8-19.5-12.3c-3.5,4.4-4.6,8.8-6.1,13.1c-7.2,21.1-20.4,39.7-35.8,57.5
		c-18.1,20.8-38.9,39.9-57.9,60.1c-18,19.1-36.4,37.9-53.2,57.7c-9,10.6-19.3,20.4-28.4,30.9c-11.6,13.4-22,27.5-34.9,40.1
		c-6.2,6.1-12.9,11.8-19.2,17.9c-12,11.5-23.8,23.1-35.7,34.6c-0.6,0.6-1.2,1.4-2.6,1.2c-1.8-1.8-0.4-3.4,0.7-5
		c7.1-10,10.3-21.4,17.5-31.4c3.4-4.7,5.8-9.8,9.8-14.3c8.3-9.2,11.2-20.4,17.4-30.4c4.9-8,10.6-15.9,14.9-24
		c7.8-14.8,19.3-28.3,23.7-44.3c1-3.7,3.5-7.1,6.3-10.2c9-10.2,17.7-20.6,27-30.6c19.9-21.4,37.5-43.9,53.6-67.3
		c10.5-15.2,19.3-30.7,23.6-47.8c0.5-1.9,1.6-2.7,3.4-3.6c5.7-2.7,8-7,8.9-12.2c3-16.8,6.2-33.6,9.6-50.3
		c5-24.6,10.5-49.1,15.6-73.7c2.7-13,4.3-26.1,5.5-39.2c0.8-8.4,3.3-16.7,1.7-25.3c-0.6-3.2-1.3-6.4-1.9-9.7
		c-1.3-7.4-8.4-9.8-15.8-5.1c-2.9,1.8-5.5,4.1-7.8,6.4c-3.7,3.7-7.7,5.9-14,6.9c-5.4,0.9-10.1,5-15,7.8
		c-17.5,9.9-34.8,19.8-52.4,29.6c-5.8,3.2-11.2,6.9-18.1,8.8c-2.3,0.6-4.1,1.9-5,3.9c-8.4,17.7-21.8,33.2-32.9,49.7
		c-7.5,11-18.1,20.5-23.8,32.3c-0.4,0.8-0.7,1.7-1.4,2.1c-13.5,8-19.7,20.3-28.2,31.3c-8.4,10.9-17,21.7-24.7,33
		c-18.9,27.8-38.6,55.2-61.8,81c-8.8,9.7-17.3,19.6-25.7,29.5c-2.4,2.8-5.3,5-8.5,6.9c-4.3,2.6-7.2,2-9.7-1.8
		c-2.5-3.8-1.2-7.4,0.5-11.1c10.4-21.7,20.6-43.5,33.4-64.4c5.7-9.3,9.9-19.2,15.9-28.3c5.4-8.2,10.5-16.6,14.8-25
		c7.2-14,17.9-26.4,25.3-40.1c2.8-5.2,8.3-9.3,9.4-15.8c-22.3,4.4-43.7,8.9-62.9,19.2c-13.1,7-27.6,12.3-41.7,18.1
		c-2.4,1-4.6,2.2-8,3.3c0.5-3,1.9-5.3,3.7-7.5c4.2-5.3,8.4-10.6,11.3-16.5c2.8-5.7,8.4-8.9,14.8-11.7c21.8-9.3,42.4-20.2,63-31
		c13.2-7,26.4-14.1,39.6-21.1c2.3-1.2,4.4-3,6.9-3.4c8.6-1.5,11.4-6.7,14.5-12.4c6.2-11.5,11.6-23.4,21.9-33.1
		c6.2-5.8,13.3-10.7,21.7-14.5c9.7-4.3,18.2-10.4,28.7-13.7c12.5-3.9,24.9-8,37.7-11.4c6.1-1.6,11.6-3.8,17-6.7
		c10.6-5.8,21.5-11.3,32.6-16.5c14.1-6.5,27.3-14.1,41.3-20.6c16.3-7.6,31.7-16.6,47.8-24.4c7.4-3.6,13.5-8.3,18.8-13.4
		c7.8-7.5,14.6-15.7,21.8-23.5c1.4-1.6,2.6-3.2,2.4-5.4c-8.7-2.5-17.8-1.8-26.6-1.6c-17.2,0.4-34.3-0.8-51.5-1.5
		c-13.5-0.5-27.1,0.6-40.4-0.5c-12.7-1.1-25.4-1.8-38.1-1.3c-25.4,1.1-51,1.4-76.1,5.7c-12.9,2.2-26.1,2.3-38.8,5.2
		c-25.5,5.7-51.8,9.1-75.7,19.3c-11.2,4.8-23.7,7.8-35.6,11.6c-18.4,5.9-37,11.5-56.4,15c-1.3,0.2-2.6,0.6-3.9,0.8
		c-0.6,0.1-1.3-0.3-2.1-0.5c22.2-12.1,45.2-23,69.8-34.1c-6.9-2.7-11.9-3.1-17.1-3.6c-27.4-2.8-54.9-0.2-82.3-0.2
		c-15.9,0-31.9,0.4-47.8-1.2c-8-0.8-16,0.9-25.9-0.8c7.1-3.4,13.3-5.5,19.4-5.7c13.1-0.4,24.5-5.5,36.9-7.7
		c10.2-1.9,19.7-3.4,30.4-1.5c19.1,3.3,38.5,3.7,58.1,1.3c16-1.9,32.2-2.9,48.3-3.2c18.1-0.4,35.4-3.9,52.8-6.7
		c10.1-1.6,20.2-3.6,30.2-5.5c1.9-0.4,3.8-1.1,5.6-1.9c16.5-7.4,34.2-13,50.1-21.3c10.7-5.6,22.5-7.4,34.6-7
		c30.8,0.8,61.5,3.4,92.3,5.8c15.4,1.2,30.9,1.1,46.4,1.7c18.1,0.8,36.2,1.2,54.3,1.5c9.6,0.1,10,0.1,13.1-7.3
		c9.8-24.2,23.4-47,36.2-70.2c11.2-20.1,28.8-35.5,49.5-49.1c2.6-1.7,5.9-2.8,7.7-6.3c-7.7-1.4-15.2-0.4-22.5-0.1
		c-22.3,1.1-44.5,3.3-66.7,3.9c-13.3,0.4-26.6,0.7-40,1c-7.6,0.2-15.3,1.2-22.8,2.2c-16.9,2.3-33.9,3.7-50.8,5.6
		c-24.9,2.8-50,3-74.8-1.7c-13.7-2.6-27.8-4-41.5-7.1c-21.6-4.8-43.4-8.9-65.3-12.9c-9.1-1.7-18.5-2.1-28-2.4
		c-17.8-0.6-35.7-0.8-53.6-1.4c-31.6-0.9-63.2-2.5-94.8-0.1c-5.1,0.4-10.7,0.9-15.8-2.4c4-4.3,10-4.8,15.1-6.6
		c21.3-7.4,43.6-12.7,64.8-20.4c4.3-1.6,8.9-2.6,13.7-2.9c10.1-0.7,20.1-1.3,30.2-1.8c5.1-0.3,10.1-0.5,14.7-2.4
		c7.1-3,14.9-3.7,22.6-4c11.4-0.6,22.8,0.6,34.1,1.6c4.4,0.4,8.7,1.4,13,1.5c8.7,0.2,17.4,0.1,27,0.1c-3.2-7.1-8.8-12.1-13.4-17.6
		c-5.5-6.7-9.5-14.6-18.6-19.1c-6-11.4-20.6-14.7-31.5-21.4c-10.9-6.7-23.9-10.8-36.5-15.2c-3.3-1.2-7.2-1.4-10.9-1.9
		c-17.2-2.6-34.2-5.9-51.5-7.7c-13.3-1.4-26.6-3.3-40-4.4c-13.9-1.1-27.9-3.3-41.3-7.3c-10.1-3-20.5-5.1-30.9-7.5
		c-2.4-0.6-4.4-1.4-5.9-3c-3.7-3.9-2.5-7.6,2.8-10.3c4.3-2.2,9.5-0.7,13.7-2.4c12.2-4.8,25-2.4,37.4-1.8c18.8,0.9,37.5,2.3,56.2,4.1
		c22,2.1,43.9,3.6,65.2,9.9c14,4.1,27.4,8.9,41,13.7c5,1.8,8.4,5.2,13,7.4c15,7.1,29.9,14.2,43.6,23.2c15.8,10.4,32,20.5,46.8,31.8
		c10.3,7.9,22.1,13.4,34.6,18.6c8,3.4,16,6.8,23.9,10.3c9.5,4.2,20,6.3,29,11.1c3.3,1.8,7.6,2.6,10.7,4.6c7.7,5.1,16.2,4,24.7,2.9
		c29.2-3.7,57.8-9.9,86.5-15.3c12.1-2.3,23.9-5.5,36.2-7.3c13.5-1.9,27.1-3.3,40.5-5.5c22.7-3.8,45.6-7,67.7-12.9
		c9.2-2.5,18.7-4.2,28.1-6.2c18.3-3.8,35.8-9.4,52.4-16.9c0.3-0.1,0.5-0.4,0.8-0.5c16-3.3,16.8-14.1,17.6-24.4
		c1-15-2.2-29.9-3.2-44.8c-1.1-15.8-5-31.3-7.2-47c-2.2-15.7-6.1-31.3-8.5-47c-2.1-13.8-4.3-27.6-5.1-41.6
		c-0.7-12.5-2.9-25-4.4-37.5c-0.4-3.2-2.3-4.2-6.1-3.1c-13.4,3.8-26.8,7.3-39.5,12.5c-8.7,3.6-17.9,6.2-27.7,7.6
		c-8,1.2-14.9,4.3-20.2,9.9c-13.3,14-23.8,29-30.6,45.9c-6.6,16.4-17.7,30.5-33.7,42.1c-14.3,10.4-27.9,21.4-42.4,31.6
		c-15,10.5-32.3,18.2-51.2,22.9c-28.5,7.1-56,15.8-82.4,26.9c-0.5,0.2-1.3-0.1-2.8-0.2c7.2-4.6,13.8-8.9,20.6-13
		c15.7-9.5,29.7-20.7,44.4-31.2c5.4-3.8,11.4-6.7,17-10.1c6-3.6,12.1-7,17.2-11.4c4.7-4.1,10.2-7.2,16.3-9.5
		c19.1-7.2,30.3-19.7,38-35.3c7.9-16,13.5-32.6,22.6-48.2c5.2-8.9,10.8-17.4,13.8-27.1c1.5-4.9,7.1-8.2,12.6-11.3
		c16.1-9.1,34.5-14,52.7-18.9c12.9-3.5,24.1-8.6,33.3-16.4c9.8-8.3,22.1-12.3,34.9-16c11.4-3.3,23.1-6.1,34.4-9.9
		c4.3-1.4,6.4-3.5,8.7-6.9c6.2-8.8,9.4-18.4,11-27.9c2.1-12.1,10.3-21.4,15.9-32c10-18.7,22.7-36.5,30.1-56.2
		c2.5-6.5,6.9-12.5,7.2-19.5c0.1-1.6,1.5-2.3,2.8-3.2c14-9.4,28.5-18.4,41.6-28.5c15.2-11.8,32.2-21.7,47.7-33.1
		c8-5.9,16.6-11.2,24.8-16.9c2.8-1.9,6.1-2.2,9.3-2.9c14.8-3.3,28.8-7.7,40.1-16.6c4.2-3.3,10.3-3.7,14.9-6.8
		c12.8-8.5,26.8-15.5,41.3-22c13.7-6.1,14.7-15.6,2.8-23.7c-8.5-5.8-17.4-11.2-25.2-17.7c-4.5-3.7-7.7-7.9-9.8-13
		c-3.6-8.7-8.5-17.2-13.6-25.4c-7.4-11.9-14.6-23.9-21.8-35.8c-1.7-2.8-3.4-5.5-8-5.4c-12.9,0.4-25.4-2.6-38.4-2.6
		c-13.2,0-26.2,1-39.3,1.4c-8.3,0.2-16.6-0.1-24.9,0c-6,0.1-12.1-0.3-18.2-0.4c-6.1,0-12.1-0.9-18.1-1.4
		c-22.1-1.8-44.3-3.2-66.6-1.5c-25.5,1.9-49,10.3-73.7,14.4c-8.2,1.4-16.3,3.2-24.5,4.7c-2.3,0.4-4.8,0.5-6.8,1.3
		c-15.6,6.1-30.4,3.3-45.6-1.5c-20.1-6.4-39.5-13.7-55.9-25.2c-6.6-4.6-12.7-9.7-18.7-14.8c-11.8-10-26.3-16.8-41.5-22.5
		c-22.5-8.3-46.3-14.3-68.3-23.6c-12.5-5.2-25-10.4-37.7-15.3c-16.3-6.3-33.3-11.6-50.7-15.9c-23.2-5.7-47.3-8.8-70.3-15.1
		c-17.7-4.9-35.5-9.6-53.2-14.5c-2.8-0.8-4.8-3-7.8-3.8c5.5-1.6,10.8,0.2,15.9,0.6c25.1,2.1,50.1,4.7,75.1,7.2
		c2.3,0.2,4.7,0.6,6.9,1c19,3.5,38.4,6.1,56.9,10.8c17.1,4.3,34.5,7.2,51.8,10.6c18.5,3.7,37.2,6.6,56.1,8.7
		c25.9,2.8,51.9,5.5,76.9,12.2c25.4,6.9,51,13.5,76.6,20c11.3,2.9,23,4.4,34.8,5.4c5.7,0.5,11.5,1,17.1,1.4c7.9,0.5,16-0.1,23.9-0.9
		c20.4-2,40.6-4.5,61-6.5c12.1-1.1,24.2-1.8,36.3-2.3c17.5-0.7,34.8-3.1,52.3-3.8c23.9-0.9,47.8-1.5,71.7-1.1c2.4,0,4.7,0,7.1,0
		c15.9-0.2,16.2-0.3,12.8-13c-1.8-6.7-3.5-13.4-3.7-20.2c-0.2-5.8-5.1-9.4-10.2-12.6c-19.4-12-41-20.4-64.4-26.3
		c-22.4-5.7-45.5-7.4-68.3-11.1c-31.7-5.1-63.5-10.1-94.8-16.8c-15.5-3.3-31.5-5.7-47.5-7.9c-19.3-2.6-38.8-3.8-58.1-5.7
		c-9.4-1-18.6-2.4-27.7-4.5c-4.6-1.1-7.2-4.1-10-6.7c-5.9-5.3-11.4-10.8-16.9-16.4c-7.6-7.8-16.9-14-26.3-20.2
		c-21.7-14-37.4-31.8-52.6-50.4c-8.5-10.4-18.9-19.7-35.1-24.4c-26.7-7.7-53.6-14.1-81.1-19.3c-25.2-4.8-50.5-9-75.7-14.1
		c-14.3-2.9-29.3-3.6-44-5.4c-18.3-2.2-36.9-0.1-55.2-2.8c-5.2-0.8-9.2-2.3-11.9-5.4c-16.3-18.7-38.1-32.7-59.3-47.4
		c-18.9-13.1-37-26.9-51.1-43.8c-5-6-12-11-19.1-17.5c9.3,1.5,15.7,5.6,22.2,8.6c15.6,7.3,32.2,13.1,48.2,19.7
		c18.5,7.7,35.7,17.2,53.4,26.1c10.8,5.4,20.9,11.9,33.1,15.3c2.6,0.7,5.6,2,7.8,0.7c8-4.8,16.5-1.9,24.4-1
		c17.3,1.9,34.6,3.8,51.8,6.3c15.2,2.3,30.5,4.1,46,5.1c10,0.7,19.9,2.6,29.9,3.6c20.6,2.1,41.2,4,63,6.2
		c-5.3-13.2-11.1-25-15.1-37.4c-1.7-5.3-3.3-10.6-6.7-15.4c-2-2.9-4.5-5-7.6-7.3c-11.2-8.3-23.9-14.8-36.6-21.4
		c-20.9-10.9-41.4-22.2-63-32.1c-14.6-6.6-29.7-12.6-44.7-18.7c-12.9-5.3-25.1-11.7-37.3-18c-27.8-14.2-53.7-30.8-83.4-42.6
		c-21.7-8.5-42.6-18.2-62.5-29.3c-18.2-10.1-36.4-20.4-49.3-35.4c-1-1.1-2-2.2-2.8-3.4c-0.4-0.6-0.4-1.5-0.9-3.7
		c29.1,9.1,57.7,16.9,84.8,27.8c26.6,10.7,52.9,22,79.5,34.7c0.7-10.5-2.3-19.6-5.8-28.1c-4.6-10.9-6.9-22.1-11-33.1
		c-2.5-6.5-4.8-13.1-6.8-19.8c-0.8-2.7-2.9-4.2-5-5.9c-10.2-8.4-20.5-16.7-30.5-25.2c-17.3-14.8-33.6-30.3-49.7-46
		c-12.7-12.3-27.7-23-42.9-33.4c-15.4-10.5-30.4-21.5-45.3-32.5c-21.7-15.9-41.6-33.4-65.2-47.6c-3.4-2-8-3-10.1-6.7
		c3.7-0.9,6,0.9,8.5,2.2c24.5,12.4,49.3,24.5,73.3,37.5c17.9,9.7,34.8,20.6,51.9,31.1c6.4,3.9,13.2,7.3,20.1,10.7
		c19.6,9.6,39,19.5,59.6,27.7c1.4,0.6,2.6,1.7,4.9,0.9c-3.5-10.9-6.5-21.8-10.5-32.4c-5.3-14-7.7-28.3-9.1-42.8
		c-1.3-13.5-4.9-26.5-11.8-38.8c-8.2-14.7-14.1-30.2-21.3-45.2c-4.3-8.9-7.9-18-11.1-27.2c-0.7-2.1-1.7-4.2-0.7-7.1
		c7.3,1.8,10.4,7,14.5,11.1c6.6,6.6,10.6,14.6,16.3,21.7c10.3,13,15.3,27.9,23,41.8c9.9,18,17.7,36.5,25.2,55.1
		c9.1,22.6,22.8,44,27.7,67.7c2.1,10,4.5,19.9,6.6,29.9c1.9,9.2,5.1,18.1,8.9,26.9c4.3,9.8,7,20,9.1,30.3
		c2.7,13,10.1,24.9,13.9,37.6c3.4,11.4,8.9,22.3,10.5,34.2c1.5,10.8,10.2,19.5,16.5,28.8c2.2,3.2,7.1,4.1,10.9,5.8
		c12.9,5.8,25.6,12,38.9,17.1c22.7,8.6,44.2,19.2,68.1,25.9c10.5,2.9,20.8,7,30.8,11.4c9.5,4.2,20.3,6.7,30.4,10.1
		c19.2,6.5,38.6,12.6,57.4,19.7c10.7,4,19.9,10.1,26.5,18.6c8.2,10.6,20.1,18.7,30.6,27.6c5.5,4.7,10.8,9.6,15.7,14.6
		c12.9,13.3,25.9,26.4,40.8,38.2c18.8,14.9,36.6,30.8,53,47.5c6.1,6.2,6.5,6,13.3-0.4c4.8-4.6,10.7-8.3,16-12.5
		c10.4-8.3,18.7-17.6,25.9-27.9c4.1-5.9,9.5-11.2,16.1-15.5c4.8-3.1,7.1-7,8.2-11.8c2.9-12.9,8.8-25,15.3-36.9
		c2.3-4.2,3.8-8.8,5.1-13.3c4.5-15.2,8.4-30.4,13.1-45.5c5.3-17.1,11.7-34,21.2-50c8.2-13.8,12.5-28.6,15.6-43.7
		c3.1,0.6,3.3,2.9,3.5,4.5c1.8,15.2,6.9,30,8,45.3c0.5,6.9,0.2,13.7-1.8,20.3c-7,23.2-9.1,46.8-8.3,70.6c0.1,2.2,0,4.4-0.5,6.5
		c-3,13.3,0.3,26.6,0.9,39.9c0.2,5.1-0.8,8.9-5.2,13.2c-7.4,7.2-13.3,15.6-19,23.8c-13.7,19.5-23.5,40.2-31.5,61.7
		c-4,10.7-5.9,21.9-11.1,32.2c-1,1.9-0.9,3.8,0.8,5.4c15.3,14.5,29.3,30,48.5,41.5c2,1.2,3.9,2,6.4,2.3c19.7,1.8,39,5.6,58.9,7
		c11.5,0.8,22.7,0.2,34.1-0.3c20.5-0.8,40.3,2.7,60.2,5.8c25.5,4,51.3,7,76.9,10.5c11.2,1.6,22.5,3.6,33.1,6.8
		c8.4,2.5,13.2,9.2,17.5,15.3c8.9,12.5,16.4,25.7,27.8,37c2.8,2.8,3.4,6.5,3.1,10.2c-0.3,4.2,1.1,7.8,4.9,11.2
		c7.5,6.5,11.2,14.9,14.7,23.1c4.9,11.5,13.1,21.4,20.7,31.7c10.9,14.7,24.7,27.9,35.2,42.8c8.1,11.4,16.8,22.5,26.7,33
		c8.4,8.9,28,9.8,36.6,1.3c7.5-7.4,17.4-12.8,25.2-20c4.4-4.1,13-5.6,19.9-7.7c14.6-4.4,29.2-8.5,44-12.4
		c21.5-5.8,43.1-11.1,65.5-14c9.6-1.2,16.9-5.3,23.9-9.9c6.5-4.3,12.4-9.2,18.7-13.7c8.1-5.7,13.6-13,18.3-20.5
		c9-14.3,20.9-26.6,35.4-37.7c8-6.2,14.6-13.5,19.8-21.6c4.6-7.3,8.8-14.8,15.1-21.3c2.9-2.9,3.2-6.6,4.1-10
		c2.2-8.8,4.2-17.7,6-26.5c2.5-12.1,7.3-23.8,9.4-36c2.1-11.9,3-23.8,3.3-35.8c0.2-7.4-3.8-14-8.7-19.9
		c-14.3-17.2-29.7-33.6-48.8-47.7c-12.7-9.4-24.3-19.7-36.1-29.8c-8.1-6.9-19.2-10.1-28.9-14.8c-13.6-6.6-27.5-12.6-40.7-19.8
		c-15.9-8.7-31.3-17.9-46.7-27.2c-14-8.4-22.4-19.5-26.1-33c-3.3-12.2-11.9-22.5-18.5-33.5c-6.2-10.3-15.5-19.3-20.4-30.2
		c-4.6-10.2-12.1-19.6-14.7-30.5c-0.5-2.1-2.1-4.3-0.7-6.4c5.6-8.3-1.7-16-1.4-24.1c0.1-1.5-2.4-3.2-4.2-4.5
		c-18.4-13.1-36.5-26.5-54.9-39.7c-13.5-9.7-28-18.6-41.8-28c-19.8-13.5-39.7-26.9-60.2-39.7c-20.6-12.8-40.7-26.1-62.5-37.6
		c-1.4-0.7-2.7-1.7-4-2.5c-3.7-2.2-6.9-4.7-4.7-8.9c1.9-3.7,8.9-7,13.5-5.1c11.5,4.8,24,7.2,35.7,11.2c5.4,1.9,10.2,5.4,14.6,8.8
		c10.2,8,21.8,14.6,32.1,22.5c11,8.4,23.8,15.3,36.4,22.2c7.6,4.2,15.2,8.1,21.7,13.4c1.3,1.1,2.6,2.6,5.9,2.3
		c0.2-4.9-2.1-9.7-2.3-14.7c-0.8-18.3-2.4-36.6-4.6-54.9c-1.6-12.8-2.3-25.7-4.3-38.4c-2-12.8-9.6-23.8-18.7-34.1
		c-15.2-17.1-30.7-34-45.7-51.1c-12-13.8-24-27.6-35.1-41.9c-5.4-7-11.5-14.2-10.4-23.5c0.4-3.5-1.9-6.8-4.6-9.8
		c-1.3-1.4-3.9-2.6-2.1-5c0.6,0,1.6-0.2,1.8,0c5.4,8.1,15.7,11.8,24.2,17c11.6,7.2,20.2,16.4,29.1,25.6
		c14.9,15.4,27.2,32.4,42.4,47.7c7.3,7.3,13.2,15.7,19.6,23.7c4.5,5.7,9.1,11.4,13.6,17.1c4.8,6.1,8.1,13.3,10.3,20.4
		c3.7,12.1,6.2,24.5,7.6,37.1c1,8.7,1.6,17.5,3.1,26.1c2,10.9,1.8,21.9,2.8,32.8c1,10.6,3,21.1,4.5,31.7c0.3,1.9,1.3,4.4,0.2,5.6
		c-6,6.4,0.9,7.8,5.2,11c7.3,5.2,16.7,7,24.6,11.2c20.3,10.6,36.6,23.9,47.6,41.3c0.2,0.2,0.4,0.5,0.6,0.7
		c11.8,7.6,13.1,19.4,17.2,29.8c8.9,22.4,19.2,44.3,31.6,65.6c3.9,6.7,6,13.9,10,20.6c3.7,6.4,9.7,11,15,15.9
		c15.5,14.3,34.6,25.1,54.3,35.2c14.8,7.6,28.8,16.3,43.7,23.8c15.7,8,32,15.2,48,22.8c4.9,2.3,10.3,4.3,14.7,7.2
		c13,9,28.2,15,42.8,21.7c11,5.1,20.3,12,28.4,19.5c5.9,5.4,8.9,12.8,11.7,19.8c3.7,9,7.9,18,9.8,27.3c2.3,10.9,7.2,21.4,7.7,32.7
		c0.3,5.9,3.3,11.6,3.2,17.7c0,3.7,2.7,4.2,7,3.3c14.4-3,28.5-6.6,42.2-11.3c19.9-6.8,39.5-14.2,61.3-16.6c5.6-0.6,10.4-3,13.9-7.4
		c12.6-15.5,25.8-30.7,36.9-47c5.5-8.1,12.4-15.6,17.5-24c3.7-6.2,6.7-12.7,9.2-19.1c5.7-14.6,12.6-28.9,18.7-43.4
		c1.4-3.2,0.9-5.6-1.1-8.5c-12.9-18.3-25.4-36.7-38.8-54.8c-15.1-20.4-29.7-41-44.5-61.4c-9.9-13.7-18.2-28.1-26.2-42.5
		c-3-5.4-6.2-9.8-15.2-10c-5.4-0.1-10.4-3.6-15.1-6.4c-13.3-7.7-23.6-18-36-26.4c-13.8-9.3-27.1-19-40.8-28.3
		c-9.4-6.4-17-14.1-25-21.5c-8.1-7.5-16.2-14.8-27.5-19.1c-10.4-4-15.8-11.8-22.5-18.5c-13.2-13.1-21.6-28.3-29.3-43.9
		c-14.5-29.2-28.6-58.6-44.6-87.3c-9.1-16.4-18.1-32.9-29.1-48.7c-5.8-8.3-9.5-17.6-14.9-26.1c-9.7-15.3-20.1-30.3-30.1-45.5
		c-7.2-10.8-14.1-21.8-21.6-32.5c-5-7.1-10.5-14-14.6-21.5c-0.9-1.6-3.1-3-1.9-5.3c12.3,2.6,18.1,10.4,23.7,18.5
		c8.4,12.2,18.3,23.6,28.2,35c10.4,12.1,20.7,24.3,29.8,37.2c16.3,23.3,29.5,48.1,48.6,70.1c12.6,14.5,24.4,29.5,37.9,43.6
		c11.1,11.4,21.5,23.3,31,35.6c8.8,11.4,21.1,19.1,35,25.5c5.9,2.7,12.1,4.8,18.7,7.4c3.2-5.2,6.3-10.3,7-16c0.5-3.7,2.9-6.7,4.5-10
		c7.8-16.1,13.6-32.7,21-48.8c14.6-31.9,10.7-63.4-2.6-94.8c-5.1-12.1-8.9-24.6-13.5-36.9c-4.7-12.5-10.1-24.8-14.8-37.3
		c-8.5-22.8-21-44.3-30.5-66.8c-7.4-17.5-12.8-35.6-21.3-52.8c-9.9-20-17.7-40.6-24.9-61.4c-2-5.7-2.4-10,3.7-14
		c3.6,0.2,4.5,3.1,5.9,4.9c8.2,10.8,19.8,19.2,30.3,28.4c1.2,1,2.3,1.9,2.7,3.3c2.4,9.4,8.3,17.9,11.6,27.1c1.8,4.9,3.7,9.9,5,14.9
		c2.7,10.1,6,20.2,10.5,29.8c9.9,20.9,16.8,42.6,29,62.8c5,8.3,8,17.5,14,25.4c6.4,8.4,10.7,17.6,16.7,26c3.4,4.7,5.1,10,8.6,14.7
		c9.1,12.1,18.6,23.9,28,35.8c7.2,9.1,13.4,18.9,17,29.5c1.1,3.3,4.2,5.6,5.4,8.7c1,2.4,2.7,4.9,0.6,7c-4,3.8-3.3,8.1-3.2,12.4
		c0.4,12.1-2.5,23.9-5.4,35.6c-1,4-1.3,8.1-1.7,12.2c-1.4,14.5-7.9,28.2-10.4,42.6c-3.4,19.5-7.3,38.9-11.1,58.3
		c-0.7,3.5,2.1,5.2,4.8,6.6c6.8,3.6,13.6,7.3,20.8,10.2c14.2,5.7,22.8,14.6,28,26.8c6.2,14.4,11.6,29.1,21,42.6
		c5.6,7.9,12.1,15.2,19,22.2c7.8,8,14,16.8,20.1,25.6c5.2,7.5,11.3,14.5,19.5,19.7c11.5,7.3,18.2,17.5,26.2,26.9
		c4,4.7,3,10.8,3.9,16.4c1.2-0.2,1.7-0.3,1.7-0.4c-1.1-9.5,5.8-17.7,6.2-27c0.2-3.5,3.1-6.6,4.4-10c4.6-11.4,10.7-22.3,16.8-33.2
		c5.4-9.7,11.9-18.9,17.6-28.5c4.1-6.9,7-14.2,10.8-21.1c4.3-7.7,7.5-15.7,11.5-23.5c7.3-14.1,12.5-28.8,18.6-43.2
		c2.7-6.5,5.8-12.9,7.9-19.5c2-6.3,7.3-9.6,13.9-12.2c2.4-0.9,4.9-1.5,6.9-3.1c12.2-10.1,25.3-19.5,36.5-30.3
		c9.3-8.8,18.4-17.1,30.7-23.5c12.2-6.3,21.8-15.5,32.8-23.2c16.5-11.3,33.2-22.3,50.3-33c5.7-3.6,10.6-7.6,14.4-12.6
		c8.2-11,16.1-22.1,23.9-33.3c7.3-10.5,13.4-21.4,17.9-32.8c5.4-13.8,7.9-28.1,10.1-42.5c2.4-15.9,4.9-31.9,6.3-47.8
		c1.2-14.2,2.6-28.4,4.7-42.4c1.9-12.5,1-25.1,4.6-37.5c2-6.9,1.2-14.2,1.3-21.2c0.3-15.9,4.2-31.4,6.3-47.2
		c2-14.9,3.5-29.9,5.8-44.8c1.6-10.9,3.9-21.7,6.4-32.5c1-4.4,7.5-7.7,13.2-7.4c6.4,0.3,11.7,4.1,11.9,9.4
		c0.2,5.2-0.8,10.4-1.1,15.6c-1,18.5-1.2,37.1-3.3,55.6c-1.9,16.8-2.5,33.6-3.5,50.4c-0.7,11.7-0.5,23.5-1.3,35.2
		c-1.5,23.5-2.2,47.1-3.6,70.6c-1.1,17.5-3.2,35-2.6,52.5c0.4,12.3,0.5,24.6-1.4,36.9c-1.1,7.4-1.2,15-1.7,22.5
		c-1,13.9-7.6,25.9-15.1,37.7c-8.5,13.4-18.9,25.6-31.8,36.5c-9.6,8.1-16.5,18-26.3,26c-16.1,13.2-32.2,26.4-49.3,38.7
		c-12.1,8.7-23.4,18.1-37,25.3c-8.2,4.3-16.3,8.8-24.6,13c-3.6,1.8-6.4,3.6-6.5,7.6c-0.1,2.3-1.4,4.7-3.5,6.7
		c-14,12.7-23.2,28-34.2,42.4c-0.4,0.5-0.7,1-0.9,1.5c-5.3,17.8-15.3,34.3-20.9,52.1c-5.5,17.7-9.4,35.7-15.8,53.1
		c-3.3,9-7.3,18.1-13.3,26.4c-5.6,7.7-9.4,16.3-17.6,24.1c7.1-0.2,11.7-2.8,16.8-4.1c11-2.9,21.3-7.2,30.9-12.3
		c8.8-4.7,17.6-9.2,27.2-12.6c16.8-5.9,30.3-15.4,42.6-25.9c16.9-14.5,37.4-24,60.6-30c14.9-3.8,28.6-9.6,42.7-14.9
		c22.2-8.4,41.9-19.8,62.4-30.2c12.5-6.4,23.3-14.3,31.8-23.8c11.2-12.5,23.5-24.3,38.1-34c13-8.6,20.3-19.5,26.1-31.6
		c6.9-14.3,14.9-28.2,19.1-43.3c1.9-6.9,4.2-13.7,6.2-20.6c3.1-10.7,6.9-21.1,11.8-31.3c6.5-13.5,11.9-27.3,17.5-41.1
		c7.2-17.4,14.9-34.6,24.3-51.4c5.3-9.4,9.5-19.3,13.3-29.2c4.9-12.8,11.8-25.1,19.1-37.1c1.6-2.7,3.6-5.3,4.8-8.1
		c8-18.1,19.1-35,29.9-52c3.5-5.6,7.1-11.3,9.4-17.2c11-29.2,29.2-56,41.3-84.8c2.4-5.8,5.5-11.6,11.6-16.5
		c-1.6,18.5-2.8,36.4-4.8,54.2c-1.2,11.1-3,22.3-5.3,33.3c-4.2,19.4-8.9,38.7-13.5,58c-7.5,31.7-13.8,63.5-21.1,95.2
		c-3.7,16.1-7.6,32.1-11.1,48.3c-1.3,6.1-5.3,11.8-5.6,18.5c6.8,1.2,12.9-1,18.7-2.5c14.1-3.8,28.5-6.7,42.5-10.6
		c12.8-3.5,25.7-6.4,38.4-10c6.9-2,13.3-1.7,20.5-0.3c12.8,2.4,25.4,5.8,38.7,6.2c1.7,0.1,3.3,0.6,4.6,1.6c0.1,2.1-2,2.6-3.8,3.1
		c-17.7,4.6-34.1,12-52.4,15.2c-5.8,1-11.6,3.2-16.8,5.7c-16.5,8-34.8,13.1-51.9,20.2c-16.1,6.7-32,13.8-48.2,20.2
		c-8.4,3.3-16,8.1-24.2,11.9c-2.4,1.1-2.8,2.8-3.5,4.7c-4.4,11.2-9,22.3-14.5,33.3c-10.1,20.3-26.4,35.9-50.4,46.4
		c-15,6.6-27,16.5-39.2,25.9c-26.4,20.5-52.3,41.5-81,59.9c-17.4,11.2-36.1,21.1-54.1,31.7c-10.1,5.9-20.7,11.3-31,16.9
		c-1.1,0.6-2.3,1.1-2.1,3.2c9.3-0.5,18.8,0.2,28.2,0.5c18.2,0.7,36.6-0.3,54.5,1.7c29.2,3.3,58.5,6.6,86.9,13.9
		c23.8,6.1,47.2,13.2,71.9,16.9c14.1,2.1,28.2,1.6,42.3,0.7c24.9-1.4,49.6-5,74.7-4.6c10.3,0.2,20.7-1.9,31.1-3.1
		c15.1-1.8,29.8-2.6,44.6,2.4c9.5,3.2,20.1,4.3,30.3,6.1c4.6,0.8,8.7,2.4,13.7,4.1c-3.3,2.6-6.6,3-9.8,3.7
		c-14,3.3-28.4,4.8-42.6,6.8c-20.5,2.8-41,5.4-61.2,9.1c-13.4,2.4-26.9,5-39.9,8.8c-26.2,7.7-53.4,9.5-80.9,6.8
		c-11-1.1-21.8-3.7-32.6-5.8c-24-4.6-47.7-10.1-71.9-13.8c-12.1-1.9-24.1-5.1-36.9-4.3c9.7,8.9,19.1,18.1,29.3,26.8
		c13.5,11.5,26.4,23.4,37.5,36.6c17.7,21,35.2,42.1,52.8,63.1c2.8,3.3,6.9,6,8.2,10.9c-10.7-1.7-19.5-6-28.9-9.3
		c-19.8-7.1-32.1-21.4-47.6-32.6c-18.3-13.3-36.8-26.5-56.4-38.6c-10.2-6.3-20.7-12.3-30.8-18.6c-1.9-1.2-3.9-2.1-5.9-3.1
		c-17.2-8.6-35.1-16.3-52.2-25.1c-8.5-4.4-17.9-7.6-27-11.3c-1.4-0.6-3.3-1-4.9-0.8c-17.4,1.8-34.9,2.3-52.3,3.9
		c-8.4,0.8-17.2,3.7-25.9,0.5c-2.1-0.8-3.6,0.8-5.3,1.8c-33.6,21.1-69.8,39.2-104.5,59.1c-5.8,3.3-11.2,7-16.9,10.4
		c-6.9,4.1-12.2,8.5-13.3,16.1c-1.9,14.2-10.8,27-13.7,41c-3.1,15.2-12.3,28.3-19.6,42c-5.6,10.5-7.5,21.5-8.8,32.7
		c-0.9,8-2.7,15.5-6.6,23c-5.3,10.1-8.2,20.8-9.6,31.8c-0.5,3.6,0.9,5.2,5.9,5.9c15.4,1.9,30.5,4.7,45.1,9.3
		c5.9,1.9,12.5,2.1,18.8,3.1c25.4,3.8,47.8,13.3,70.2,23.1c9,4,8.7,3.7,16.9-1c16.8-9.6,32-20.8,47.7-31.6
		c6.4-4.4,11.9-9.6,17.6-14.7c6.9-6.1,14.8-11,23.8-14.9c8.6-3.7,16-9.2,25.3-11.8c4-1.1,7.8-3.4,12.6-1.7c1.2,0.4,3.3-0.4,4.7-1.1
		c14.2-6.8,30.8-6.3,46.1-9.7c15.2-3.4,30.7-6.1,46.1-9.2c15.1-3,29.5-0.7,43.9,1.5c9.9,1.5,20.3,0.4,29.8,3.8
		c-6.7,3.1-14.8,4.4-22.2,6.9c-16.1,5.5-32.6,10.2-49.1,14.8c-17.4,4.8-33.4,11.3-48.8,19.1c-19.2,9.7-36.6,21.1-52.3,34.5
		c-15.9,13.6-33.7,25.8-54.2,35.1c-9,4.1-17.1,9.5-27.4,11.3c-0.3,3.7,3.2,4.4,5.7,5.4c16.7,6.5,33.1,13.9,50.5,18.9
		c16.3,4.7,33.4,6.3,48.7-4.4c8.6-6,19.6-9.8,27-17.1c2.4-2.3,4.6-1.8,6.8,0.1c3.1,2.5,6.7,4.8,9.1,7.8
		c8.6,10.5,21.1,17.6,32.8,25.4c18.6,12.4,35,26.5,50.3,41.6c11.8,11.6,24.7,22.6,37.8,33.2c17.9,14.6,35,29.8,51.1,45.6
		c11.8,11.6,22.3,24.1,30.5,37.7c1.3,2.1,3.3,4.2,3,6.8c-1.7,0.9-2.5-0.4-3.2-0.9c-16.5-14-37.8-21.5-59.1-29.2
		c-21.9-7.9-42.7-17.4-62.2-28.9c-15.1-8.9-29.6-18.2-43.3-28.4c-16.6-12.3-33.9-24.4-45.9-40.2c-6.8-8.9-17.6-11.8-29.8-13.4
		c-21.8-2.8-43.7,0.4-65.5-1.4c-9.2-0.7-17.9-1.2-24.4-7.8c-2.2-2.2-6.2-3.2-9.4-4.6c-20.5-8.9-40.9-18.1-61.7-26.6
		c-7.8-3.2-16.4-5-24.8-7c-17.5-4.1-35.3-7.4-52.6-11.8c-21.5-5.5-43.1-10.9-64.3-17.3c-17.7-5.3-35.9-9.4-53.9-14.1
		c-1.9-0.5-4.2-0.6-5.7-1.6c-6.7-4.3-13.1-2.6-19.7,0.2c-13.3,5.6-27.5,9-41.9,12c-13.4,2.8-26.3,6.5-39,11.1
		c-16.9,6.1-35.1,9.7-52.5,14.7c-8.1,2.3-14,7.4-21.9,9.8c-3.1,0.9-5.8,2.6-9,3.6c-3.8,1.2-6.9,3.2-8.4,6.7
		c-1.9,4.3-5.5,7.2-10.5,9.6c-5.8,2.8-10.5,6.8-14.7,11.1c-5.5,5.6-7.9,11.4-3.2,18c2.2,3,0,5.5-1.3,7.8
		c-4.1,7.5-8.3,14.9-13.2,22.1c-3.8,5.6-5.7,11.6-8.9,17.1c1.7,2.6,4.4,1.7,6.5,2c17.3,2.2,34.5,4.9,51.9,6.2
		c11,0.8,22.2,1.1,33.4,1.7c31.9,1.6,62.3,8.6,92.8,15.7c16.5,3.9,32,9.8,48.9,12.8c9.6,1.7,18.6,6.3,28.4,8.4
		c5.8,1.2,11.6,2.4,17.8,1.8c11-1,22-0.4,33.1-0.9c17.8-0.8,35.5-2.4,53.2-4.2c13.7-1.4,27.5-1.8,41.2-2.9c23.5-1.8,47-1.1,70.6-1.3
		c8.2-0.1,16.1,1.5,24.2,1.8c1,0,2.2,0.3,2.8,0.9c7.1,6.2,17.2,8.4,25.6,13c6.6,3.6,14.5,5.7,21.8,8.4c4.3,1.6,8.7,3,13,5.2
		c-17.5,3.1-35.4,1.6-53,2.9c-17.8,1.3-35.7,0.2-53.4,3c-0.7,2,1.6,2.8,3.1,3.4c8.8,3.3,15.1,9.1,22.6,13.7
		c15,9.3,30.5,18.1,45.4,27.6c9.5,6,18.9,12.2,28.6,18.1c9.5,5.8,19.9,8,30.9,9c11.2,1,22.6,1.5,33.9,1.7c11,0.1,21.4,1.5,30.9,6.2
		c9.3,4.6,19.4,7.5,30,9.4c1.2,0.2,2.2,1.1,4.6,2.3c-11.2,1.2-21.1,1-31,0.9c-19.8-0.3-39.6-1.8-59.4-1.4c-15.6,0.3-30.7-1.2-45.7-4
		c-11.7-2.2-21.7-7.5-31.8-12.5c-5.5-2.7-10.6-5.6-17.4-6.1c-3.3-0.2-6.1-2-8.8-3.7c-11.4-7.3-23.1-14.2-35.4-20.5
		c-9.5-4.9-20.5-6.9-30.1-11.4c-3.5-1.6-7-3.1-10.5-4.9c-13.9-7.2-27.6-15-45.4-13.8c-0.6,0-1.4,0-2-0.2c-17.5-7.2-37-6.5-55.6-8.7
		c-14.6-1.8-29.4-2.5-44.3-2c-5.1,0.2-10,1.2-15,1.8c-17.8,2-34.9,0.1-52.1-4.3c-13.8-3.5-28-6.2-42.1-9.1
		c-11.7-2.4-23.4-5.1-34.7-8.5c-15.2-4.6-31.1-7.4-46.7-10.5c-15.2-3-31.2-3.2-46.9-4c-3.8-0.2-7.3-0.9-10.9-1.4
		c-13.4-1.6-26.9,0-40.3-0.3c-3.8-0.1-5.1,0.9-5.7,4c-2,10.4-6.5,20-14.3,28.6c-5.8,6.4-7.9,14.4-14.9,20.3
		c-3.9,3.3-8.2,5.7-13.6,6.5c-12.9,1.9-25.9,3.9-38.4,7.1c-4.8,1.2-9.4,3-14.2,4.4c-13.3,3.9-26.8,7.5-40.6,10.3
		c-12.3,2.5-19.2,10.8-27.8,17.2c-6.7,4.9-12.3,10.9-18.5,16.3c-0.9,0.8-2.8,1.4-2.3,2.5c2.7,5.6-3,6.4-6.9,8.1
		c-8.1,3.5-14.8,8.1-20.4,14.2c-3.9,4.2-7,9-13,12.2c-4.4,2.3-5.4,7.1-4.8,11.9c1.3,9.2,7.6,13.7,17.7,17.9
		c14.8,6.1,28.8,14,38.9,25.1c3.6,4.1,8.1,7.3,12.4,10.6c13,9.9,24.8,20.8,35.3,32.2c7.7,8.3,14.6,18.5,11.2,30.4
		c-0.5,1.8,0,3.8,0.4,5.7c5.1,24,12.9,47.5,22.4,70.5c8,19.4,15.3,39.1,26.1,57.7c2.2,3.7,2.1,6.6-0.5,9.8
		c-4.2,5.2-8.1,10.7-12.7,15.7c-4.5,4.9-5.1,9.7-2.4,15.2c3.9,7.7,10,14.2,16.7,20.3c14.2,12.9,30.5,24,45.3,36.3
		c10.6,8.8,23.3,15.7,32.8,25.4c3.4,3.5,8.8,5.9,13.5,8.6c4.1,2.3,8.5,4.2,11.3,8.2c6.8-5.6,12.8-10.8,17.8-16.7
		c3.5-4.1,7.6-7.8,13.4-9.7c18.9-6.4,37.2-13.9,57.2-18.2c11.1-2.4,21.9-5.8,32.4-9.5c10.5-3.7,21.4-6.4,32.4-8.7
		c6.6-1.3,12.4-3.9,19-5.3c24-5.1,47.6-11.6,71.8-16.3c12.7-2.5,24.8-6.7,37.5-9.2c10.7-2,21.4-4.2,32.5-4.7
		c19.3-1,38.4,0.7,57.6,2.5c8.7,0.8,17.5,0.7,24.1-5.5c2.4-2.3,5.9-3.6,9.6-4.3c22.2-4.4,43.9-10.4,66.6-12.9
		c15.6-1.8,31.2-3.8,46.7-6.4c9.9-1.6,19.4-4.4,29.2-6.5c36.6-7.9,71.6-19.3,106-31.8c20.9-7.5,41.3-16.5,60.2-26.9
		c22-12,44.2-24.3,60.3-42.1c6-6.6,13.6-12.2,20.2-18.4c3.5-3.3,7.5-5.1,12.7-5.9c4.8-0.8,9.5-2.2,14.9-3.5c0.9,3.1-1.9,4.8-3.3,6.6
		c-11.2,14-25.4,25.9-39.1,38.3c-17.6,16-39.8,27-59.4,40.9c-12.2,8.6-24.2,17.4-37.4,25.1c-5.8,3.4-12.2,5.9-18.1,9
		c-18.2,9.3-37.5,17.2-56.7,25.2c-21.3,8.8-43,17.2-64.5,25.7c-4.7,1.9-10.2,2.6-15.3,6.6c9,1.4,17,2.8,25.1,3.8
		c42.8,5,85.6,10.1,128.2,16.1c2.3,0.3,4.7,0.5,7.1,0.7c13,0.9,25,4.3,35.2,10.8c13.5,8.6,28.3,15.5,42.5,23.2
		c2.5,1.4,5.1,2.4,7.1,5.4c-7.1-1.3-13.6-2.3-19.9-3.7c-36.9-8-74.5-12.3-112.2-16.9c-32.7-4-65.6-5.6-98.4-8.1
		c-23.9-1.8-47.9-3.3-72-3.1c-23.2,0.3-46.4,0.7-69.5,1.1c-13.2,0.2-26.5-0.1-39.7,1.3c-18,2-36.1,3.7-54.2,5.6
		c-22,2.3-43,8.2-63.5,14.5c-30.2,9.4-60.3,19-88.3,32.7c-14.1,6.9-28.8,13.2-43.7,19.1c-15,6-29.7,12.5-43.7,20
		c-4.7,2.6-10,4.5-15.3,6.3c-5.5,1.9-7.1,4.5-1.8,10.7c-8-3.4-13.6-3.4-20-1.4c4.3,6,10.3,10.5,17.1,13.9
		c8.8,4.4,18.3,7.9,27.7,11.6c15,5.9,29.9,12.2,45.4,17.3c15.9,5.3,31.8,10.4,47.1,16.6c16.9,6.8,32,15.3,41,29.2
		c5.8,8.9,10.8,18.1,16.2,27.1c7.1,12,13.8,24.2,18,37.1c0.4,1.2,2.2,2.1,2.7,3.4c1.8,4.3,5.2,3.9,9.4,2.6
		c8.8-2.8,17.7-5.3,26.4-8.1c25-8.1,50.3-15.6,74.7-24.8c22.8-8.5,45.9-16.5,68.6-25.1c14.2-5.3,29.8-8.1,45.8-2.8
		c12.2,4,25.7,3.7,38.4,6.4c5.2,1.1,11.7-0.1,17.3-0.9c11.6-1.6,23.4-2.2,35-4c12.5-1.9,24.9-4.6,36.8-8.3c9.2-2.8,18.7-4.8,28-6.6
		c19.3-3.8,36.8-10.3,53-19.1c6.4-3.5,13.4-4.3,20.8-5.1c10.2-1.2,20.6,0.2,30.5-2.4c5.6-1.4,11.2-0.8,18.3-1.9
		c-3.5,4.9-9.1,5.2-13.1,6.7c-15.2,5.8-30.3,11.7-46.1,16.4c-13.9,4.1-27.6,8.5-41.5,12.6c-15.2,4.4-29.6,10.2-45.5,17.9
		c21.8,5.5,42.4,8.9,64,16.2c-10.2,0.8-18.5,2.1-26.6,1.7c-7.2-0.4-14.8,2.2-21.8-1.3c-12.4,1.6-24.7-0.4-37-1.1
		c-5.9-0.3-11.8-1.1-17.7-1.7c-11.7-1.2-23.2,1-34.7,2c-7.6,0.7-15.2,0.9-22.9,1.8c-21.6,2.6-43,6.1-63.9,10.6
		c-20.6,4.5-41.5,9.1-60.9,16.6c-19.7,7.6-41.1,11.4-60.4,19.3c-18.1,7.5-38.6,9.3-56.5,17.9c3.2,8.1,12.1,13.1,18.6,19.5
		c5.5,5.3,12.6,9,20.9,10.8c21.8,4.7,42.3,12.3,64.4,16.5c6.7,1.3,13.2,4,20.1,5c1,0.1,2,1,2.8,0.9c13.5-1.9,25,3,36.6,7.2
		c6.2,2.2,12.6,0.6,19,1.3c5.3,0.6,9.7,1,12.5,5.5c2,3.3,6.2,5.4,10.6,5.8c13.5,1.2,26.2,5,39.5,6.7c2.4,0.3,5.1,0.5,6.1,2.4
		c3.4,6.3,10.6,8,17.6,9.8c26.3,6.9,51.4,16,77.2,24c32.1,9.9,63.3,21.5,95.2,31.6c13.3,4.2,25.5,9.7,38,14.9
		c12.5,5.3,26.6,7.7,39.7,11.8c17.3,5.5,35.6,7.9,53.2,12.6c21.9,5.8,44.4,9.4,66.8,13.4c26.3,4.7,52.3,10.4,79,13.5
		c6,0.7,11.9,1.9,17.9,2.7c2.9,0.4,4.9,1.4,6.6,3.3c8.4,9.7,18.4,18.2,29.4,27.4c-75.8,3.3-148.9-4.6-222.3-20.2
		c2.6,6.2,6.3,10.2,9.8,14.1c17.3,19,32.1,39.2,46.2,59.9c4.6,6.7,8.2,13.2,8.9,21.3c0.7,7.1,4.9,14.1,8,21
		c5.5,12.3,11.4,24.4,17.1,36.6c0.6,1.3,1.4,2.5,0.5,4.3c-6-2.5-8.9-7.4-12.8-11.1c-12.9-12.3-25.8-24.5-38.6-36.8
		c-18.9-18.2-36.4-37.4-54.4-56.2c-12-12.5-24.4-24.8-36-37.5c-6.4-7-12.5-14.2-18.6-21.4c-12-14.2-24.5-28.3-43.5-37
		c-14.3-6.6-29.4-12-44.6-17.2c-23.6-8.1-47.8-14.9-71.2-23.5c-9.2-3.4-18.7-6.2-28-9.4C2404.3,2239.1,2402.2,2238.7,2399.4,2238.7z
		 M2475.2,446.3c-0.8,1.6-1.2,2.3-1.5,3c-0.3,0.7-1.9,2.4,0.7,1.8C2476.5,450.6,2476.5,448.7,2475.2,446.3z"/>
	<path d="M145.8,435.7c-4.9-0.6-8.3-3.6-12.3-5.5c-11.2-5.5-22.2-11.2-33.1-17c-3-1.6-6.3-3.1-8.1-5.9c0.6-0.2,1.3-0.7,1.5-0.6
		c16.2,8.2,32.7,15.9,48.1,25.1c1.7,1,4.6,1.6,3.6,4.2C145.5,436,145.8,435.7,145.8,435.7z"/>
	<path d="M2206.7,2232.8c-1.3-2.4-1.7-4.7-0.1-7.2C2208.3,2228.1,2207.3,2230.5,2206.7,2232.8z"/>
	<path d="M154.2,438.6c-3.3,0-5.8-1.6-8.4-2.9c0,0-0.3,0.2-0.3,0.3c3.8-1.1,6.9-0.6,8.4,2.9L154.2,438.6z"/>
	<path d="M154,438.8c2.6,0.1,4.5,1.2,7,2.4c-3.9,1.1-5.2-0.9-6.7-2.6C154.2,438.6,154,438.8,154,438.8z"/>
</g>
</svg>
