<svg version="1.2" xmlns="http://www.w3.org/2000/svg" viewBox="0 0 1000 1000" width="1000" height="1000">
	<title>viatropos-ai</title>
	<style>
		.s0 { fill: #000000 } 
	</style>
	<g id="Layer 1">
		<path id="&lt;Path&gt; copy" class="s0" d="m973.9 325.8c3.8 2 3 7.6-1.1 8.6-16.2 4-45.5 16.1-68.7 52.7-33.9 53.4-51 100.1-127.7 84.7-76.7-15.4-106.1 38-110.6 80.1-4.5 42.1-9.6 81.2-9 126.4 0.6 52.3 5.6 142.8 14.6 167.4 9.1 24.7 62.4 50 131 69.9 22.3 6.5 34 49 37 63.8 1.8 8.8-14.7 0.2-24-2.5-9.6-2.7-22.8-5.9-39.6-8.4-38.3-5.6-79.5-8.2-97.6-18.5-18-10.2-38.4-28.2-51.9 1.6-13.5 29.8-2.3 46.2-30.5 31.8-28.2-14.4-77.8-43.6-98.2-38.5-20.3 5.1-46.4 66.9-76.4 38.8-30.1-28.2-38.1-50.1-72-47.8-33.8 2.3-111.7 37.8-141.3 40.1q-6.9 0.5-12.3 0.8c-9.8 0.6-15.5-9.8-9-16.6l46-48.4c15.3-16.1 36.6-26.6 59.8-29.5 26.7-3.3 53-15.3 59.6-24.2 11.3-15.4 19.9-67.5 22.1-125.1 2.3-57.5 1.1-153.1-14.7-182.9-15.8-29.8-19.5-47.6-49.9-57.4-30.5-9.9-45.4-39.6-101.7-35.7-38 2.7-80.6-7.3-94.2-33.5-12.2-23.6-22.8-91.7-86.7-101-4.8-0.6-5.3-7.4-0.6-8.7 14-3.7 33.3-6.7 54.4-3.9 41.7 5.7 47.9 57.1 76.1 70.4 23.7 11.2 51.2-13.8 107.1 7.9 10.8 4.2 25.5 21.7 56.6 19.1 0 0-23.9-20.7-37.6-47.3-4.7-8.9-7-18.7-8.8-28.6-2.4-13.3-11.3-24.7-24.3-29.7-6.1-2.3-13.3-4.8-21.7-7.6-56.4-19-94.9-41.9-79.4-90.3 1.1-3.5 6.1-3.6 7.3-0.2 4.8 14.7 18.8 39 58.2 48.6 28.3 6.8 49.6 11.1 64.7 17.6 0.5-18.2-0.7-34-7.5-42-15.3-18-72-56.2-79.5-82.4-6.9-24.2 2.6-82.5-37.6-122.7-2.6-2.7 0-7.1 3.6-5.9 21.2 6.8 58.8 25 63.5 69.9 4.7 44 0 52.4 42.4 76.3 19.4 11 35.8 18.4 49.7 25.7 6.4-26.8 30.1-34.2 35.7-60.6 3.7-17-4.1-30-12.2-38.5-2.5-2.7 0.5-7 4-5.6 41.4 16.3 48.1 44.8 33.6 65.7-16.3 23.6-11.3 71.8-7.4 108.8q0 0 0 0c6.1 25.6 10.6 54 24.1 68.7 21.4 23.1 50.2 40 58.7 64.7 0 0 17.2-35.7 9.3-55.2-7.9-19.6-29.4-31.9-1.7-64.3 7.9-9.2 17-17.4 25.8-25.3 13.3-12 13.3-32.9 0.1-45-23.3-21-40-26.8-37.9-69.9 1.7-32.6-3.5-52.2-19.4-62.9-3.3-2.2-1.5-7.4 2.4-6.9 16.8 2.1 38 8.7 42 28.3 6 29.4 10.1 70.1 52.4 82.6-3.2-36.7-9.7-68 13-92.5 24.3-26.2 43.5-39 79.6-35.4 32.4 3.2 73 9.3 95.7-33.7 1.6-3.1 6.4-1.6 5.9 1.9-2.2 14.8-8.3 35.8-24.9 52.3-28.8 28.8-82.4 8.8-94.8 39.6-12.4 30.8-5.6 80.1 5.7 113.5 11.3 33.4-7.4 45.2-32.2 62.7-24.8 17.5-5.9 87.1 10.2 104 0 0 18.6-66.3 60.9-77.8q1.7-0.5 3.5-0.9c5.5-2.6 21.6-11.5 24.2-29.6 2.9-20.5-18.4-100.8 35.8-129 3.6-1.9 7.4 2.1 5.2 5.5-9.3 14.8-22.2 43.2-12.4 76.6 11.1 37.8 23.9 48.9 20.8 67.7 19.1-4.1 35.2-12.7 43.1-33.5 17.8-47 11-73.2 52.5-82.4 36.3-8.1 85-27.8 88-70.9 0.2-3.4 5-3.9 6-0.6 4.6 16.2 7.6 40.6-4.9 65.1-21.4 42.1-71.1 19.5-81.2 73.9-10.2 54.5 0 88.4-89.2 104.8-55.3 10.3-67.7 57.6-67.7 57.6 0 0 44-25.7 83.5-13.4 39.5 12.3 67.5-0.4 102.5-24.1 32.9-22.2 62.9-79.9 122.1-48.9z"/>
	</g>
</svg>